<svg width="204" height="51" viewBox="0 0 204 51" fill="none" xmlns="http://www.w3.org/2000/svg">
<g clip-path="url(#clip0_118_314)">
<path d="M197.534 25.1122C201.073 23.4608 202.772 20.5093 202.772 17.0223C202.772 11.5212 198.145 7.38135 190.059 7.38135H178.489V43.6186H190.905C199.62 43.6186 204 39.423 204 33.5034C204 29.5143 201.684 26.5684 197.534 25.1122ZM191.124 37.7604H184.95V28.1139H190.905C195.308 28.1139 197.427 30.0276 197.427 32.9846C197.427 35.7854 195.403 37.7604 191.124 37.7604V37.7604ZM190.715 22.2612H184.95V13.2396H190.277C194.068 13.2396 195.981 14.958 195.981 17.7476C195.981 20.3364 194.236 22.2612 190.715 22.2612V22.2612ZM169.177 12.8044C168.047 11.1477 166.541 9.77921 164.781 8.80964C162.802 7.76614 160.587 7.24733 158.348 7.30324H146.807V43.5405H158.348C160.603 43.6013 162.836 43.0886 164.837 42.0509C166.6 41.0847 168.107 39.7155 169.233 38.0561C170.402 36.2955 171.237 34.3363 171.695 32.276C172.21 30.0247 172.466 27.7224 172.458 25.4135C172.469 23.1048 172.203 20.8029 171.667 18.5566C171.189 16.5066 170.346 14.5584 169.177 12.8044V12.8044ZM157.602 37.6823H153.267V13.1615H157.473C162.122 13.1615 165.773 17.4296 165.773 25.3968C165.773 33.8438 162.7 37.6823 157.602 37.6823V37.6823Z" fill="#4C9DFF"/>
<path d="M120.931 0H133.583V51H120.931V45.1418H127.695V5.85822H120.931V0ZM118.632 29.7765C118.645 31.0001 118.483 32.2194 118.15 33.3974H98.0002C98.819 36.4214 101.718 38.3853 105.711 38.3853C109.126 38.3853 111.224 37.6154 113.299 35.7128L117.241 39.8247C114.235 42.7315 110.529 44.2435 105.767 44.2435C97.0861 44.2435 91.2089 39.0492 91.2089 30.6413C91.2089 23.1818 96.7664 16.9107 105.027 16.9107C113.147 16.9107 118.626 22.769 118.632 29.7765ZM98.0899 27.6508H111.768C111.297 24.9449 108.655 22.769 104.96 22.769C101.337 22.769 98.7236 24.8221 98.0899 27.6508ZM79.3759 7.38136H67.7898V13.2396H72.9155V37.7604H67.3523V43.6186H85.2475V37.7604H79.3759V7.38136ZM55.5867 17.5077H44.0005V23.3659H49.1263V37.7604H43.507V43.6186H61.4022V37.7604H55.5867V17.5077ZM48.8627 13.2396H55.5923V7.38136H48.8627V13.2396ZM26.8736 23.3659H37.5457V17.5077H26.8736V7.38136H20.4132V17.5077H14.6538V23.3659H20.4132V37.0184C20.4131 37.8859 20.5848 38.7449 20.9185 39.5464C21.2521 40.3479 21.7412 41.0762 22.3578 41.6896C22.9744 42.303 23.7064 42.7896 24.512 43.1216C25.3177 43.4535 26.1811 43.6243 27.0531 43.6242H37.5457V37.766H26.8737L26.8736 23.3659ZM0 51H12.6517V45.1418H5.88282V5.85822H12.6517V0H0V51Z" fill="white"/>
</g>
<defs>
<clipPath id="clip0_118_314">
<rect width="204" height="51" fill="white"/>
</clipPath>
</defs>
</svg>
